<?xml version="1.0" encoding="UTF-8"?>
<!DOCTYPE svg PUBLIC "-//W3C//DTD SVG 1.1//EN" "http://www.w3.org/Graphics/SVG/1.1/DTD/svg11.dtd">
<!-- Creator: CorelDRAW 2017 -->
<svg xmlns="http://www.w3.org/2000/svg" xml:space="preserve" width="3.26424in" height="0.400587in" version="1.1" style="shape-rendering:geometricPrecision; text-rendering:geometricPrecision; image-rendering:optimizeQuality; fill-rule:evenodd; clip-rule:evenodd"
viewBox="0 0 3649.24 447.83"
 xmlns:xlink="http://www.w3.org/1999/xlink">
 <defs>
  <style type="text/css">
   <![CDATA[
    .fil0 {fill:#4B4B4D;fill-rule:nonzero}
   ]]>
  </style>
 </defs>
 <g id="Layer_x0020_1">
  <metadata id="CorelCorpID_0Corel-Layer"/>
  <path class="fil0" d="M3116.1 440.61l-56.2 0c-53.33,-141.16 -76.25,-204.11 -130.58,-351.7 -2.17,-6.09 -4.44,-15.78 -6.6,-28.98l-1.24 0c-1.96,12.27 -4.34,21.87 -6.91,28.98 -51.98,142.26 -78.98,215.03 -127.59,351.7l-56.42 0 166.16 -433.29 52.6 0 166.78 433.29z"/>
  <path class="fil0" d="M1117.88 440.61l0 -433.29 119.65 0c152.64,0 229.08,70.34 229.08,211.23 0,66.83 -21.25,120.57 -63.64,161.21 -42.39,40.53 -99.12,60.85 -170.28,60.85l-114.8 0zm50.75 -387.39l0 341.49 64.67 0c56.83,0 100.97,-15.26 132.63,-45.69 31.66,-30.42 47.45,-73.54 47.45,-129.34 0,-110.97 -59,-166.46 -177.09,-166.46l-67.66 0z"/>
  <path class="fil0" d="M705.95 447.83c-61.47,0 -110.67,-20.22 -147.59,-60.75 -36.92,-40.43 -55.49,-93.14 -55.49,-158 0,-69.73 18.88,-125.32 56.52,-166.78 37.64,-41.46 89.02,-62.29 153.88,-62.29 59.83,0 107.99,20.21 144.51,60.44 36.61,40.33 54.87,93.03 54.87,158.11 0,70.65 -18.77,126.55 -56.21,167.71 -37.44,41.05 -87.56,61.57 -150.48,61.57zm3.61 -401.83c-45.48,0 -82.41,16.4 -110.87,49.19 -28.36,32.9 -42.6,76.02 -42.6,129.34 0,53.42 13.83,96.34 41.58,128.92 27.64,32.49 63.84,48.78 108.29,48.78 47.55,0 84.99,-15.48 112.42,-46.51 27.43,-31.05 41.05,-74.47 41.05,-130.27 0,-57.25 -13.21,-101.39 -39.81,-132.64 -26.61,-31.25 -63.33,-46.83 -110.06,-46.83z"/>
  <path class="fil0" d="M3649.24 440.61l-62.29 0 -222.99 -345.42c-5.67,-8.66 -10.32,-17.74 -13.93,-27.12l-1.76 0c1.55,9.28 2.37,29.08 2.37,59.52l0 313.02 -50.74 0 0 -433.29 65.91 0 216.91 339.95c9.07,14.02 14.96,23.72 17.53,28.98l1.24 0c-2.06,-12.49 -3.09,-33.73 -3.09,-63.74l0 -305.19 50.84 0 0 433.29z"/>
  <path class="fil0" d="M2546.67 440.61l-50.43 0 0 -290.65c0,-23 1.33,-51.06 4.23,-84.37l-1.24 0c-4.85,19.6 -9.18,33.53 -13,41.97l-148 333.04 -24.86 0 -147.69 -330.56c-4.23,-9.69 -8.56,-24.44 -12.99,-44.45l-1.24 0c1.65,17.33 2.37,45.69 2.37,84.88l0 290.13 -48.89 0 0 -433.29 67.05 0 132.95 302.1c10.31,23.2 16.91,40.53 20,51.98l1.76 0c8.66,-23.72 15.67,-41.47 20.83,-53.11l135.73 -300.97 63.43 0 0 433.29z"/>
  <polygon class="fil0" points="1671.84,242.99 1671.84,197.4 1722.59,197.4 1901.44,197.4 1901.44,242.99 1722.59,242.99 "/>
  <polygon class="fil0" points="1901.44,440.61 1671.84,440.61 1671.84,394.71 1722.59,394.71 1879.16,394.71 1901.44,394.71 "/>
  <path class="fil0" d="M203.09 447.83c-61.47,0 -110.67,-20.22 -147.59,-60.75 -36.93,-40.43 -55.49,-93.14 -55.49,-158 0,-69.73 18.88,-125.32 56.52,-166.78 37.65,-41.46 89.02,-62.29 153.88,-62.29 56.26,0 102.2,17.88 137.85,53.47l-35.2 35.2c-26.28,-28.48 -61.76,-42.68 -106.36,-42.68 -45.48,0 -82.41,16.4 -110.87,49.19 -28.36,32.9 -42.6,76.02 -42.6,129.34 0,53.42 13.83,96.34 41.58,128.92 27.64,32.49 63.84,48.78 108.29,48.78 45.95,0 82.46,-14.45 109.62,-43.44l34.3 34.3c-36.66,36.49 -84.61,54.73 -143.92,54.73z"/>
  <polygon class="fil0" points="1671.84,52.91 1671.84,7.32 1722.59,7.32 1901.44,7.32 1901.44,52.91 1722.59,52.91 "/>
 </g>
</svg>
