<svg xmlns="http://www.w3.org/2000/svg" width="500" height="35" viewBox="0 0 500 35">
    <g fill="#FFF" fill-rule="nonzero">
        <path d="M9.036 33.798V4.596H.142V1.237h21.474v3.359H12.72v29.237H9.036zM31.538 33.798V1.202h3.65v13.611H53.33V1.202h3.65v32.596h-3.65V18.172H35.188v15.626h-3.65zM69.88 33.798V1.202h18.462v3.359H73.529v10.323h13.927v3.358H73.529v12.162h15.132v3.359H69.88z"/>
        <g>
            <path d="M139.972 4.03v4.207c-2.764-2.828-6.166-4.277-10.241-4.277-3.827 0-7.017 1.308-9.533 3.853-2.516 2.546-3.791 5.763-3.791 9.652 0 3.889 1.275 7.141 3.791 9.687 2.516 2.545 5.706 3.818 9.533 3.818 4.11 0 7.512-1.45 10.24-4.278v4.207c-2.692 2.298-6.13 3.465-10.24 3.465-4.713 0-8.718-1.591-12.049-4.808-3.26-3.218-4.89-7.283-4.89-12.056 0-4.808 1.63-8.803 4.89-12.02 3.331-3.217 7.336-4.844 12.049-4.844 4.11-.035 7.512 1.132 10.24 3.394zM148.051 17.465c0-4.808 1.63-8.803 4.89-12.02C156.272 2.226 160.276.6 164.99.6s8.718 1.626 12.013 4.843c3.331 3.218 4.961 7.213 4.961 12.02 0 4.809-1.63 8.839-4.96 12.056-3.261 3.217-7.3 4.808-12.014 4.808-4.713 0-8.717-1.59-12.048-4.808-3.26-3.217-4.89-7.283-4.89-12.055zm3.579 0c0 3.853 1.276 7.141 3.792 9.687 2.551 2.545 5.74 3.818 9.567 3.818s7.017-1.273 9.533-3.818c2.516-2.546 3.791-5.834 3.791-9.687 0-3.854-1.275-7.071-3.791-9.652-2.516-2.545-5.706-3.853-9.533-3.853-3.827 0-7.016 1.308-9.567 3.853-2.516 2.546-3.792 5.763-3.792 9.652zM191.885 33.657V.035l22.82 25.702V1.202h3.65v33.621l-22.82-25.702v24.536h-3.65zM228.278 25.985c2.8 3.323 6.13 4.985 9.886 4.985 4.536 0 7.052-2.51 7.052-5.127 0-1.803-.496-3.217-1.524-4.207-.992-.99-2.905-2.227-5.705-3.676-1.453-.743-2.551-1.344-3.366-1.874a24.252 24.252 0 0 1-2.516-1.874c-1.736-1.52-2.48-3.323-2.48-5.692 0-4.702 3.791-7.954 9.744-7.954 2.658 0 4.855.742 6.591 2.227v4.1c-2.02-2.014-4.217-2.969-6.626-2.969-3.792 0-6.06 1.803-6.06 4.596 0 1.344.46 2.44 1.418 3.253.992.848 2.622 1.873 4.89 3.04 3.118 1.52 4.748 2.546 6.59 4.384 1.879 1.732 2.694 3.854 2.694 6.611 0 2.298-.992 4.243-2.906 5.975-1.913 1.661-4.394 2.51-7.512 2.51-4.11 0-7.512-1.308-10.17-3.854v-4.454zM259.036 33.657V1.167h18.391v3.358h-14.741v10.323h13.855v3.36h-13.855v12.125h15.096v3.359h-18.746zM288.129 33.657V1.167h11.127c2.693 0 4.996.919 6.91 2.793C308.079 5.763 309 8.096 309 10.854c0 4.277-2.48 7.777-6.202 9.227l7.832 13.54h-4.146l-7.335-12.868H291.779V33.62h-3.65v.036zm3.65-16.192h7.087c1.878 0 3.402-.601 4.607-1.874 1.275-1.273 1.878-2.793 1.878-4.702 0-3.57-2.658-6.328-6.272-6.328h-7.336v12.904h.036zM329.66 34.823L315.663 1.202h3.933l10.1 24.43 10.098-24.43h3.934zM343.196 33.657L357.902.035l14.742 33.622h-3.97l-3.507-8.026h-14.67l-3.509 8.026h-3.792zm8.788-11.349h11.765L357.867 8.52l-5.883 13.788zM384.054 33.657V4.525h-8.86V1.167h21.404v3.358h-8.859v29.132zM401.984 17.465c0-4.808 1.63-8.803 4.89-12.02C410.207 2.226 414.21.6 418.924.6c4.713 0 8.717 1.626 12.013 4.843 3.33 3.218 4.96 7.213 4.96 12.02 0 4.809-1.63 8.839-4.96 12.056-3.26 3.217-7.3 4.808-12.013 4.808s-8.717-1.59-12.048-4.808c-3.26-3.217-4.89-7.283-4.89-12.055zm3.615 0c0 3.853 1.276 7.141 3.792 9.687 2.55 2.545 5.74 3.818 9.567 3.818s7.016-1.273 9.532-3.818c2.516-2.546 3.792-5.834 3.792-9.687 0-3.854-1.276-7.071-3.792-9.652-2.516-2.545-5.705-3.853-9.532-3.853s-7.016 1.308-9.567 3.853c-2.552 2.546-3.792 5.763-3.792 9.652zM445.819 33.657V1.167h11.126c2.694 0 4.997.919 6.91 2.793 1.914 1.803 2.835 4.136 2.835 6.894 0 4.277-2.48 7.777-6.201 9.227l7.831 13.54h-4.146l-7.335-12.868h-7.371V33.62h-3.65v.036zm3.65-16.192h7.087c1.878 0 3.401-.601 4.606-1.874 1.276-1.273 1.878-2.793 1.878-4.702 0-3.57-2.657-6.328-6.272-6.328h-7.335v12.904h.035zM484.869 33.657V20.328L473.423 1.167h4.004l9.285 15.555 9.213-15.555h3.933l-11.34 19.161v13.329z"/>
        </g>
    </g>
</svg>
