<svg id="Layer_1" data-name="Layer 1" xmlns="http://www.w3.org/2000/svg" viewBox="0 0 235.03 28.89"><defs><style>.cls-1{fill:#fff;}</style></defs><title>codeman-logo-white</title><path class="cls-1" d="M200.68,28.38h-3.57c-3.43-9.09-4.91-13.15-8.41-22.65a11.58,11.58,0,0,1-.42-1.87h-0.17a10.49,10.49,0,0,1-.44,1.87c-3.35,9.16-5.09,13.85-8.22,22.65h-3.63l10.7-27.91h3.39l10.74,27.91h0Z" transform="translate(-0.02 -0.05)"/><path class="cls-1" d="M72,28.38V0.47H79.7q14.75,0,14.75,13.6a13.72,13.72,0,0,1-4.1,10.38q-4.1,3.92-11,3.92H72Zm3.27-25v22h4.17q5.49,0,8.54-2.94T91,14.16Q91,3.44,79.62,3.44H75.26Z" transform="translate(-0.02 -0.05)"/><path class="cls-1" d="M45.46,28.89A12.23,12.23,0,0,1,36,25,14.51,14.51,0,0,1,32.38,14.8q0-6.74,3.64-10.74t9.91-4A12,12,0,0,1,55.24,4a14.56,14.56,0,0,1,3.53,10.18q0,6.83-3.62,10.8a12.47,12.47,0,0,1-9.69,4h0v0ZM45.69,3a9,9,0,0,0-7.14,3.17,14.11,14.11,0,0,0-.07,16.63,8.73,8.73,0,0,0,7,3.14,9.16,9.16,0,0,0,7.24-3q2.65-3,2.64-8.39T52.8,6a8.81,8.81,0,0,0-7.09-3h0Z" transform="translate(-0.02 -0.05)"/><path class="cls-1" d="M235,28.38h-4L216.66,6.13a9.28,9.28,0,0,1-.9-1.75h-0.11a29.6,29.6,0,0,1,.15,3.83V28.37h-3.27V0.47h4.24l14,21.89a15.69,15.69,0,0,1,1.13,1.87H232a28.8,28.8,0,0,1-.2-4.11V0.47h3.27V28.38h0Z" transform="translate(-0.02 -0.05)"/><path class="cls-1" d="M164,28.38h-3.25V9.66q0-2.22.27-5.43h-0.08a17.27,17.27,0,0,1-.84,2.66l-9.53,21.45H149L139.47,7.05a16.7,16.7,0,0,1-.84-2.86h-0.08c0.11,1.12.15,2.94,0.15,5.47V28.35h-3.15V0.47h4.32l8.57,19.42a25.71,25.71,0,0,1,1.29,3.35h0.11c0.56-1.53,1-2.67,1.34-3.42l8.74-19.38H164V28.35h0v0Z" transform="translate(-0.02 -0.05)"/><polygon class="cls-1" points="107.65 15.6 107.65 12.66 110.92 12.66 122.44 12.66 122.44 15.6 110.92 15.6 107.65 15.6"/><polygon class="cls-1" points="122.44 28.33 107.65 28.33 107.65 25.37 110.92 25.37 121.01 25.37 122.44 25.37 122.44 28.33"/><path class="cls-1" d="M13.11,28.89A12.23,12.23,0,0,1,3.6,25,14.51,14.51,0,0,1,0,14.8Q0,8.06,3.67,4.06t9.91-4A12,12,0,0,1,22.46,3.5L20.11,5.71A8.87,8.87,0,0,0,13.26,3,9,9,0,0,0,6.12,6.13,14.12,14.12,0,0,0,6,22.76a8.73,8.73,0,0,0,7,3.14,9.21,9.21,0,0,0,7.06-2.8l2.21,2.21a12.57,12.57,0,0,1-9.21,3.58h0Z" transform="translate(-0.02 -0.05)"/><polygon class="cls-1" points="107.65 3.36 107.65 0.42 110.92 0.42 122.44 0.42 122.44 3.36 110.92 3.36 107.65 3.36"/></svg>